<?xml version="1.0" encoding="UTF-8"?>
<svg width="20px" height="20px" viewBox="0 0 20 20" version="1.1" xmlns="http://www.w3.org/2000/svg" xmlns:xlink="http://www.w3.org/1999/xlink">
    <title>icon-搜索/AI/2</title>
    <g id="icon-搜索/AI/2" stroke="none" stroke-width="1" fill="none" fill-rule="evenodd">
        <path d="M14.5086117,5.41293594 C14.7847541,5.41293594 15.0086117,5.63679356 15.0086117,5.91293594 L15.0086117,14.2326565 C15.0086117,14.5087989 14.7847541,14.7326565 14.5086117,14.7326565 C14.2324693,14.7326565 14.0086117,14.5087989 14.0086117,14.2326565 L14.0086117,5.91293594 C14.0086117,5.63679356 14.2324693,5.41293594 14.5086117,5.41293594 Z M9.6369554,5.71996364 L11.511,10.2009343 L11.5890079,10.0895806 C11.731874,9.86743451 11.8449962,9.62712172 11.924847,9.37438667 C12.0080398,9.11107397 12.2889379,8.96505791 12.5522506,9.04825067 C12.8155633,9.13144343 12.9615794,9.4123416 12.8783866,9.67565429 C12.7450681,10.0976196 12.5424696,10.4933526 12.2799672,10.8478224 C12.1771018,10.9867267 12.0660663,11.1180491 11.9477219,11.2412543 L13.034279,13.8405737 C13.1408546,14.0953211 13.0207377,14.3882313 12.7659903,14.4948069 C12.5112429,14.6013826 12.2183327,14.4812657 12.111757,14.2265183 L11.1351097,11.8920532 C10.5222507,12.2633883 9.80994204,12.4694023 9.06361744,12.4694023 C8.33500624,12.4694023 7.63323589,12.2570575 7.02335075,11.8808768 L5.95563545,14.2397213 C5.85441992,14.4633414 5.60910144,14.5763912 5.37914826,14.5187799 L5.29394753,14.4890586 C5.04237486,14.3751911 4.93074274,14.0789433 5.04461022,13.8273707 L6.217887,11.2334266 C6.08558596,11.0972426 5.96166098,10.9514842 5.84726767,10.7970133 C5.5825426,10.4395421 5.38195202,10.0594078 5.24982132,9.65543658 C5.16397606,9.39297667 5.30715053,9.11061955 5.56961044,9.0247743 C5.83207034,8.93892904 6.11442747,9.08210351 6.20027272,9.34456342 C6.29806669,9.64355487 6.44838848,9.928426 6.65089843,10.2018851 L6.672,10.2289343 L8.72018181,5.70676063 C8.90032013,5.30877271 9.46835273,5.31695328 9.6369554,5.71996364 Z M9.15712284,7.16493594 L7.43991916,10.9596212 C7.92186755,11.2850007 8.48411596,11.4694023 9.06361744,11.4694023 C9.67597753,11.4694023 10.2572265,11.2849061 10.7440447,10.9553045 L9.15712284,7.16493594 Z" id="形状结合" fill="#fff" fill-rule="nonzero"></path>
    </g>
</svg>