<svg width="128" height="128" viewBox="0 0 128 128" fill="none" xmlns="http://www.w3.org/2000/svg">
<rect width="128" height="128" fill="white"/>
<rect width="128" height="128" fill="white"/>
<path d="M0 0H43V42H0V0Z" fill="#0078D4"/>
<path d="M0 42H43V86H0V42Z" fill="#0364B7"/>
<path d="M0 86H43V128H0V86Z" fill="#064A8C"/>
<path d="M43 0H86V42H43V0Z" fill="#28A8EA"/>
<path d="M43 42H86V86H43V42Z" fill="#0075D0"/>
<path d="M43 86H86V128H43V86Z" fill="#0364B8"/>
<path d="M86 0H128V42H86V0Z" fill="#50D9FF"/>
<path d="M86 42H128V86H86V42Z" fill="#28A8EA"/>
<path d="M86 86H128V128H86V86Z" fill="#0078D4"/>
<g filter="url(#filter0_d_320_304)">
<path d="M91 62.5C91 77.1355 79.1355 89 64.5 89C49.8645 89 38 77.1355 38 62.5C38 47.8645 49.8645 36 64.5 36C79.1355 36 91 47.8645 91 62.5Z" fill="white"/>
<path d="M64 71C64 82.598 54.598 92 43 92C31.402 92 22 82.598 22 71C22 59.402 31.402 50 43 50C54.598 50 64 59.402 64 71Z" fill="white"/>
<path d="M107 74.5C107 84.165 99.165 92 89.5 92C79.835 92 72 84.165 72 74.5C72 64.835 79.835 57 89.5 57C99.165 57 107 64.835 107 74.5Z" fill="white"/>
<path d="M42 73H90V92H42V73Z" fill="white"/>
</g>
<defs>
<filter id="filter0_d_320_304" x="18" y="36" width="93" height="64" filterUnits="userSpaceOnUse" color-interpolation-filters="sRGB">
<feFlood flood-opacity="0" result="BackgroundImageFix"/>
<feColorMatrix in="SourceAlpha" type="matrix" values="0 0 0 0 0 0 0 0 0 0 0 0 0 0 0 0 0 0 127 0" result="hardAlpha"/>
<feOffset dy="4"/>
<feGaussianBlur stdDeviation="2"/>
<feComposite in2="hardAlpha" operator="out"/>
<feColorMatrix type="matrix" values="0 0 0 0 0 0 0 0 0 0 0 0 0 0 0 0 0 0 0.2 0"/>
<feBlend mode="normal" in2="BackgroundImageFix" result="effect1_dropShadow_320_304"/>
<feBlend mode="normal" in="SourceGraphic" in2="effect1_dropShadow_320_304" result="shape"/>
</filter>
</defs>
</svg>
